# xmcd
#
# Track frame offsets:
#	150
#	13446
#	33019
#	47284
#	58864
#	72677
#	84941
#	97996
#	110207
#	123650
#	136320
#	148691
#	164111
#	177083
#	191294
#	202681
#	215807
#	228305
#
# Disc length: 3213 seconds
#
# Revision: 0
# Processed by: cddbd v1.5.1PL0 Copyright (c) Steve Scherf et al.
# Submitted via: dBpowerAMP V4.0
#
DISCID=060c8b12
DTITLE=Various Artist - Blues History - The Thirties - CD3
DYEAR=2005
DGENRE=Blues
TTITLE0=Steady Rock Blues
TTITLE1=John Hardy
TTITLE2=Sugar Mama Blues No.2
TTITLE3=Aberdeen Mississippi Blues
TTITLE4=Alabama Bound
TTITLE5=Back Door Stranger
TTITLE6=Blowing The Blues
TTITLE7=Blues At Midnight
TTITLE8=Cabbage Greens No.1
TTITLE9=Careless Love
TTITLE10=Coal Miner Blues
TTITLE11=Evil Man's Blues
TTITLE12=Good Morning Blues
TTITLE13=Grinder Man Blues
TTITLE14=Harmonica And Washboard Breakdown
TTITLE15=Jivin' Mr. Fuller Blues
TTITLE16=Precious Lord
TTITLE17=Shake Down Blues
EXTD=
EXTT0=
EXTT1=
EXTT2=
EXTT3=
EXTT4=
EXTT5=
EXTT6=
EXTT7=
EXTT8=
EXTT9=
EXTT10=
EXTT11=
EXTT12=
EXTT13=
EXTT14=
EXTT15=
EXTT16=
EXTT17=
PLAYORDER=
